<?xml version="1.0" encoding="UTF-8" standalone="no"?>
<svg width="100" height="100" viewBox="0 0 100 100" fill="none" xmlns="http://www.w3.org/2000/svg">
  <!-- Outer ring -->
  <circle cx="50" cy="50" r="48" stroke="url(#ring_gradient)" stroke-width="1.5" fill="none" opacity="0.7" />
  
  <!-- Gradient background circle -->
  <circle cx="50" cy="50" r="45" fill="url(#paint0_linear)" />
  
  <!-- Subtle accent circles -->
  <circle cx="75" cy="25" r="5" fill="white" opacity="0.2" />
  <circle cx="20" cy="65" r="3" fill="white" opacity="0.15" />
  
  <!-- N letter with modern design -->
  <path d="M65 27H58C56.895 27 56 27.895 56 29V44.5858L37.4142 26C36.6332 25.219 35.3668 25.219 34.5858 26L29.5858 31C28.8047 31.781 28.8047 33.0474 29.5858 33.8284L48.1716 52.4142V71C48.1716 72.105 49.0666 73 50.1716 73H57.1716C58.2762 73 59.1716 72.105 59.1716 71V55.4142L77.7574 74C78.5384 74.781 79.8048 74.781 80.5858 74L85.5858 69C86.3669 68.219 86.3669 66.9526 85.5858 66.1716L67 47.5858V29C67 27.895 66.105 27 65 27Z" fill="white"/>
  
  <!-- Edge highlight for depth -->
  <path d="M65 27H58C56.895 27 56 27.895 56 29V44.5858L37.4142 26C36.6332 25.219 35.3668 25.219 34.5858 26L29.5858 31C28.8047 31.781 28.8047 33.0474 29.5858 33.8284L48.1716 52.4142V71C48.1716 72.105 49.0666 73 50.1716 73H57.1716C58.2762 73 59.1716 72.105 59.1716 71V55.4142" stroke="#E0E7FF" stroke-width="1" stroke-linecap="round" stroke-linejoin="round"/>
  
  <!-- Definitions for gradients -->
  <defs>
    <linearGradient id="paint0_linear" x1="15" y1="15" x2="85" y2="85" gradientUnits="userSpaceOnUse">
      <stop stop-color="#3B82F6" />
      <stop offset="1" stop-color="#4F46E5" />
    </linearGradient>
    
    <linearGradient id="ring_gradient" x1="10" y1="10" x2="90" y2="90" gradientUnits="userSpaceOnUse">
      <stop stop-color="#60A5FA" />
      <stop offset="1" stop-color="#818CF8" />
    </linearGradient>
  </defs>
</svg>